<?xml version="1.0" encoding="UTF-8" standalone="no"?>
<!DOCTYPE svg PUBLIC "-//W3C//DTD SVG 1.1//EN"
 "http://www.w3.org/Graphics/SVG/1.1/DTD/svg11.dtd">
<!-- Generated by graphviz version 12.2.1 (20241206.2353)
 -->
<!-- Pages: 1 -->
<svg width="632pt" height="404pt"
 viewBox="0.00 0.00 631.53 404.00" xmlns="http://www.w3.org/2000/svg" xmlns:xlink="http://www.w3.org/1999/xlink">
<g id="graph0" class="graph" transform="scale(1 1) rotate(0) translate(4 400)">
<polygon fill="white" stroke="none" points="-4,4 -4,-400 627.53,-400 627.53,4 -4,4"/>
<!-- Apply -->
<g id="node1" class="node">
<title>Apply</title>
<g id="a_node1"><a xlink:href="https://eshelyaron.com/man/lean4-bdd/Bdd/Apply.html" xlink:title="Apply">
<ellipse fill="none" stroke="green" cx="33.95" cy="-162" rx="33.95" ry="18"/>
<text text-anchor="middle" x="33.95" y="-156.95" font-family="Times,serif" font-size="14.00">Apply</text>
</a>
</g>
</g>
<!-- BDD -->
<g id="node3" class="node">
<title>BDD</title>
<g id="a_node3"><a xlink:href="https://eshelyaron.com/man/lean4-bdd/Bdd/BDD.html" xlink:title="BDD">
<ellipse fill="none" stroke="green" cx="338.95" cy="-90" rx="30.37" ry="18"/>
<text text-anchor="middle" x="338.95" y="-84.95" font-family="Times,serif" font-size="14.00">BDD</text>
</a>
</g>
</g>
<!-- Apply&#45;&gt;BDD -->
<g id="edge5" class="edge">
<title>Apply&#45;&gt;BDD</title>
<path fill="none" stroke="black" d="M59.61,-150C65.26,-147.82 71.25,-145.69 76.95,-144 153.89,-121.2 246.43,-105.02 298.39,-96.92"/>
<polygon fill="black" stroke="black" points="298.61,-100.43 307.96,-95.45 297.55,-93.51 298.61,-100.43"/>
</g>
<!-- Basic -->
<g id="node2" class="node">
<title>Basic</title>
<g id="a_node2"><a xlink:href="https://eshelyaron.com/man/lean4-bdd/Bdd/Basic.html" xlink:title="Basic">
<ellipse fill="none" stroke="green" cx="318.95" cy="-306" rx="31.39" ry="18"/>
<text text-anchor="middle" x="318.95" y="-300.95" font-family="Times,serif" font-size="14.00">Basic</text>
</a>
</g>
</g>
<!-- Basic&#45;&gt;Apply -->
<g id="edge1" class="edge">
<title>Basic&#45;&gt;Apply</title>
<path fill="none" stroke="black" d="M288.49,-300.78C250.06,-294.49 182.84,-280.25 131.95,-252 101.67,-235.19 73.08,-207.33 54.68,-187.25"/>
<polygon fill="black" stroke="black" points="57.5,-185.16 48.22,-180.04 52.29,-189.83 57.5,-185.16"/>
</g>
<!-- Choice -->
<g id="node4" class="node">
<title>Choice</title>
<g id="a_node4"><a xlink:href="https://eshelyaron.com/man/lean4-bdd/Bdd/Choice.html" xlink:title="Choice">
<ellipse fill="none" stroke="green" cx="122.95" cy="-162" rx="37.02" ry="18"/>
<text text-anchor="middle" x="122.95" y="-156.95" font-family="Times,serif" font-size="14.00">Choice</text>
</a>
</g>
</g>
<!-- Basic&#45;&gt;Choice -->
<g id="edge12" class="edge">
<title>Basic&#45;&gt;Choice</title>
<path fill="none" stroke="black" d="M287.69,-302.55C251.99,-298.17 193.88,-285.95 157.95,-252 141.06,-236.04 132.18,-210.93 127.59,-191.45"/>
<polygon fill="black" stroke="black" points="131.02,-190.74 125.57,-181.66 124.17,-192.16 131.02,-190.74"/>
</g>
<!-- Collect -->
<g id="node5" class="node">
<title>Collect</title>
<g id="a_node5"><a xlink:href="https://eshelyaron.com/man/lean4-bdd/Bdd/Collect.html" xlink:title="Collect">
<ellipse fill="none" stroke="green" cx="204.95" cy="-234" rx="37.53" ry="18"/>
<text text-anchor="middle" x="204.95" y="-228.95" font-family="Times,serif" font-size="14.00">Collect</text>
</a>
</g>
</g>
<!-- Basic&#45;&gt;Collect -->
<g id="edge13" class="edge">
<title>Basic&#45;&gt;Collect</title>
<path fill="none" stroke="black" d="M298.04,-292.16C280.96,-281.67 256.54,-266.68 237,-254.68"/>
<polygon fill="black" stroke="black" points="238.93,-251.76 228.58,-249.51 235.27,-257.72 238.93,-251.76"/>
</g>
<!-- Evaluate -->
<g id="node7" class="node">
<title>Evaluate</title>
<g id="a_node7"><a xlink:href="https://eshelyaron.com/man/lean4-bdd/Bdd/Evaluate.html" xlink:title="Evaluate">
<ellipse fill="none" stroke="green" cx="388.95" cy="-162" rx="43.16" ry="18"/>
<text text-anchor="middle" x="388.95" y="-156.95" font-family="Times,serif" font-size="14.00">Evaluate</text>
</a>
</g>
</g>
<!-- Basic&#45;&gt;Evaluate -->
<g id="edge14" class="edge">
<title>Basic&#45;&gt;Evaluate</title>
<path fill="none" stroke="black" d="M327.25,-288.15C339.2,-263.92 361.36,-218.96 375.62,-190.05"/>
<polygon fill="black" stroke="black" points="378.7,-191.7 379.99,-181.18 372.43,-188.6 378.7,-191.7"/>
</g>
<!-- Lift -->
<g id="node8" class="node">
<title>Lift</title>
<g id="a_node8"><a xlink:href="https://eshelyaron.com/man/lean4-bdd/Bdd/Lift.html" xlink:title="Lift">
<ellipse fill="none" stroke="green" cx="402.95" cy="-234" rx="27" ry="18"/>
<text text-anchor="middle" x="402.95" y="-228.95" font-family="Times,serif" font-size="14.00">Lift</text>
</a>
</g>
</g>
<!-- Basic&#45;&gt;Lift -->
<g id="edge15" class="edge">
<title>Basic&#45;&gt;Lift</title>
<path fill="none" stroke="black" d="M335.95,-290.83C347.95,-280.84 364.22,-267.27 377.73,-256.02"/>
<polygon fill="black" stroke="black" points="379.94,-258.73 385.39,-249.64 375.46,-253.35 379.94,-258.73"/>
</g>
<!-- Relabel -->
<g id="node11" class="node">
<title>Relabel</title>
<g id="a_node11"><a xlink:href="https://eshelyaron.com/man/lean4-bdd/Bdd/Relabel.html" xlink:title="Relabel">
<ellipse fill="none" stroke="green" cx="486.95" cy="-234" rx="39.07" ry="18"/>
<text text-anchor="middle" x="486.95" y="-228.95" font-family="Times,serif" font-size="14.00">Relabel</text>
</a>
</g>
</g>
<!-- Basic&#45;&gt;Relabel -->
<g id="edge18" class="edge">
<title>Basic&#45;&gt;Relabel</title>
<path fill="none" stroke="black" d="M343.74,-294.67C371.29,-283.19 416.14,-264.5 448.31,-251.1"/>
<polygon fill="black" stroke="black" points="449.41,-254.43 457.29,-247.36 446.71,-247.97 449.41,-254.43"/>
</g>
<!-- Restrict -->
<g id="node12" class="node">
<title>Restrict</title>
<g id="a_node12"><a xlink:href="https://eshelyaron.com/man/lean4-bdd/Bdd/Restrict.html" xlink:title="Restrict">
<ellipse fill="none" stroke="green" cx="583.95" cy="-234" rx="39.58" ry="18"/>
<text text-anchor="middle" x="583.95" y="-228.95" font-family="Times,serif" font-size="14.00">Restrict</text>
</a>
</g>
</g>
<!-- Basic&#45;&gt;Restrict -->
<g id="edge19" class="edge">
<title>Basic&#45;&gt;Restrict</title>
<path fill="none" stroke="black" d="M348.18,-298.74C389.91,-289.59 468.85,-271.53 534.95,-252 537.54,-251.24 540.19,-250.42 542.86,-249.57"/>
<polygon fill="black" stroke="black" points="543.94,-252.9 552.33,-246.44 541.74,-246.25 543.94,-252.9"/>
</g>
<!-- Trim -->
<g id="node16" class="node">
<title>Trim</title>
<g id="a_node16"><a xlink:href="https://eshelyaron.com/man/lean4-bdd/Bdd/Trim.html" xlink:title="Trim">
<ellipse fill="none" stroke="green" cx="289.95" cy="-234" rx="29.86" ry="18"/>
<text text-anchor="middle" x="289.95" y="-228.95" font-family="Times,serif" font-size="14.00">Trim</text>
</a>
</g>
</g>
<!-- Basic&#45;&gt;Trim -->
<g id="edge23" class="edge">
<title>Basic&#45;&gt;Trim</title>
<path fill="none" stroke="black" d="M311.93,-288.05C308.72,-280.32 304.85,-270.96 301.25,-262.27"/>
<polygon fill="black" stroke="black" points="304.55,-261.09 297.48,-253.19 298.08,-263.77 304.55,-261.09"/>
</g>
<!-- Sat -->
<g id="node13" class="node">
<title>Sat</title>
<g id="a_node13"><a xlink:href="https://eshelyaron.com/man/lean4-bdd/Bdd/Sat.html" xlink:title="Sat">
<ellipse fill="none" stroke="green" cx="338.95" cy="-18" rx="27" ry="18"/>
<text text-anchor="middle" x="338.95" y="-12.95" font-family="Times,serif" font-size="14.00">Sat</text>
</a>
</g>
</g>
<!-- BDD&#45;&gt;Sat -->
<g id="edge20" class="edge">
<title>BDD&#45;&gt;Sat</title>
<path fill="none" stroke="black" d="M338.95,-71.7C338.95,-64.41 338.95,-55.73 338.95,-47.54"/>
<polygon fill="black" stroke="black" points="342.45,-47.62 338.95,-37.62 335.45,-47.62 342.45,-47.62"/>
</g>
<!-- Choice&#45;&gt;BDD -->
<g id="edge7" class="edge">
<title>Choice&#45;&gt;BDD</title>
<path fill="none" stroke="black" d="M151.58,-150.16C157.31,-148.06 163.31,-145.92 168.95,-144 214.04,-128.65 266.44,-112.58 301.01,-102.21"/>
<polygon fill="black" stroke="black" points="301.99,-105.58 310.57,-99.36 299.98,-98.87 301.99,-105.58"/>
</g>
<!-- Reduce -->
<g id="node10" class="node">
<title>Reduce</title>
<g id="a_node10"><a xlink:href="https://eshelyaron.com/man/lean4-bdd/Bdd/Reduce.html" xlink:title="Reduce">
<ellipse fill="none" stroke="red" cx="288.95" cy="-162" rx="38.56" ry="18"/>
<text text-anchor="middle" x="288.95" y="-156.95" font-family="Times,serif" font-size="14.00">Reduce</text>
</a>
</g>
</g>
<!-- Collect&#45;&gt;Reduce -->
<g id="edge16" class="edge">
<title>Collect&#45;&gt;Reduce</title>
<path fill="none" stroke="black" d="M223.18,-217.81C234.51,-208.36 249.3,-196.04 261.98,-185.48"/>
<polygon fill="black" stroke="black" points="264.15,-188.22 269.6,-179.13 259.67,-182.84 264.15,-188.22"/>
</g>
<!-- Size -->
<g id="node15" class="node">
<title>Size</title>
<g id="a_node15"><a xlink:href="https://eshelyaron.com/man/lean4-bdd/Bdd/Size.html" xlink:title="Size">
<ellipse fill="none" stroke="green" cx="204.95" cy="-162" rx="27" ry="18"/>
<text text-anchor="middle" x="204.95" y="-156.95" font-family="Times,serif" font-size="14.00">Size</text>
</a>
</g>
</g>
<!-- Collect&#45;&gt;Size -->
<g id="edge22" class="edge">
<title>Collect&#45;&gt;Size</title>
<path fill="none" stroke="black" d="M204.95,-215.7C204.95,-208.41 204.95,-199.73 204.95,-191.54"/>
<polygon fill="black" stroke="black" points="208.45,-191.62 204.95,-181.62 201.45,-191.62 208.45,-191.62"/>
</g>
<!-- DecisionTree -->
<g id="node6" class="node">
<title>DecisionTree</title>
<g id="a_node6"><a xlink:href="https://eshelyaron.com/man/lean4-bdd/Bdd/DecisionTree.html" xlink:title="DecisionTree">
<ellipse fill="none" stroke="green" cx="264.95" cy="-378" rx="60.56" ry="18"/>
<text text-anchor="middle" x="264.95" y="-372.95" font-family="Times,serif" font-size="14.00">DecisionTree</text>
</a>
</g>
</g>
<!-- DecisionTree&#45;&gt;Basic -->
<g id="edge3" class="edge">
<title>DecisionTree&#45;&gt;Basic</title>
<path fill="none" stroke="black" d="M278.02,-360.05C284.58,-351.56 292.64,-341.11 299.87,-331.73"/>
<polygon fill="black" stroke="black" points="302.48,-334.08 305.81,-324.03 296.93,-329.81 302.48,-334.08"/>
</g>
<!-- Evaluate&#45;&gt;BDD -->
<g id="edge9" class="edge">
<title>Evaluate&#45;&gt;BDD</title>
<path fill="none" stroke="black" d="M377.1,-144.41C371.1,-136.01 363.68,-125.63 356.99,-116.26"/>
<polygon fill="black" stroke="black" points="359.91,-114.32 351.25,-108.22 354.21,-118.39 359.91,-114.32"/>
</g>
<!-- Sim -->
<g id="node14" class="node">
<title>Sim</title>
<g id="a_node14"><a xlink:href="https://eshelyaron.com/man/lean4-bdd/Bdd/Sim.html" xlink:title="Sim">
<ellipse fill="none" stroke="green" cx="476.95" cy="-162" rx="27" ry="18"/>
<text text-anchor="middle" x="476.95" y="-156.95" font-family="Times,serif" font-size="14.00">Sim</text>
</a>
</g>
</g>
<!-- Lift&#45;&gt;Sim -->
<g id="edge21" class="edge">
<title>Lift&#45;&gt;Sim</title>
<path fill="none" stroke="black" d="M417.92,-218.83C428.19,-209.13 442.01,-196.06 453.69,-185"/>
<polygon fill="black" stroke="black" points="455.78,-187.84 460.64,-178.42 450.97,-182.75 455.78,-187.84"/>
</g>
<!-- Nary -->
<g id="node9" class="node">
<title>Nary</title>
<g id="a_node9"><a xlink:href="https://eshelyaron.com/man/lean4-bdd/Bdd/Nary.html" xlink:title="Nary">
<ellipse fill="none" stroke="green" cx="372.95" cy="-378" rx="29.34" ry="18"/>
<text text-anchor="middle" x="372.95" y="-372.95" font-family="Times,serif" font-size="14.00">Nary</text>
</a>
</g>
</g>
<!-- Nary&#45;&gt;Basic -->
<g id="edge2" class="edge">
<title>Nary&#45;&gt;Basic</title>
<path fill="none" stroke="black" d="M360.97,-361.46C354.28,-352.8 345.79,-341.79 338.19,-331.95"/>
<polygon fill="black" stroke="black" points="341.08,-329.96 332.2,-324.18 335.54,-334.23 341.08,-329.96"/>
</g>
<!-- Reduce&#45;&gt;BDD -->
<g id="edge4" class="edge">
<title>Reduce&#45;&gt;BDD</title>
<path fill="none" stroke="black" d="M300.8,-144.41C306.8,-136.01 314.22,-125.63 320.91,-116.26"/>
<polygon fill="black" stroke="black" points="323.69,-118.39 326.65,-108.22 317.99,-114.32 323.69,-118.39"/>
</g>
<!-- Relabel&#45;&gt;BDD -->
<g id="edge6" class="edge">
<title>Relabel&#45;&gt;BDD</title>
<path fill="none" stroke="black" d="M499.53,-216.72C512.63,-197.64 529.14,-165.86 512.95,-144 482.78,-103.27 422.02,-92.78 380.91,-90.62"/>
<polygon fill="black" stroke="black" points="381.25,-87.13 371.13,-90.26 380.99,-94.13 381.25,-87.13"/>
</g>
<!-- Restrict&#45;&gt;BDD -->
<g id="edge8" class="edge">
<title>Restrict&#45;&gt;BDD</title>
<path fill="none" stroke="black" d="M578.06,-215.9C570.22,-195.71 554.45,-162.55 529.95,-144 486.03,-110.75 422.36,-98.36 380.81,-93.74"/>
<polygon fill="black" stroke="black" points="381.25,-90.27 370.95,-92.76 380.56,-97.23 381.25,-90.27"/>
</g>
<!-- Sim&#45;&gt;BDD -->
<g id="edge10" class="edge">
<title>Sim&#45;&gt;BDD</title>
<path fill="none" stroke="black" d="M455.99,-150.37C433.59,-139.01 397.78,-120.84 371.67,-107.6"/>
<polygon fill="black" stroke="black" points="373.34,-104.52 362.83,-103.12 370.17,-110.76 373.34,-104.52"/>
</g>
<!-- Size&#45;&gt;BDD -->
<g id="edge11" class="edge">
<title>Size&#45;&gt;BDD</title>
<path fill="none" stroke="black" d="M225.89,-150.06C247.53,-138.76 281.6,-120.96 306.68,-107.86"/>
<polygon fill="black" stroke="black" points="308.24,-110.99 315.48,-103.26 305,-104.79 308.24,-110.99"/>
</g>
<!-- Trim&#45;&gt;Reduce -->
<g id="edge17" class="edge">
<title>Trim&#45;&gt;Reduce</title>
<path fill="none" stroke="black" d="M289.7,-215.7C289.6,-208.41 289.47,-199.73 289.36,-191.54"/>
<polygon fill="black" stroke="black" points="292.86,-191.57 289.22,-181.62 285.86,-191.67 292.86,-191.57"/>
</g>
</g>
</svg>
