<?xml version="1.0" encoding="UTF-8" standalone="no"?>
<!DOCTYPE svg PUBLIC "-//W3C//DTD SVG 1.1//EN"
 "http://www.w3.org/Graphics/SVG/1.1/DTD/svg11.dtd">
<!-- Generated by graphviz version 12.2.1 (20241206.2353)
 -->
<!-- Pages: 1 -->
<svg width="732pt" height="404pt"
 viewBox="0.00 0.00 731.53 404.00" xmlns="http://www.w3.org/2000/svg" xmlns:xlink="http://www.w3.org/1999/xlink">
<g id="graph0" class="graph" transform="scale(1 1) rotate(0) translate(4 400)">
<polygon fill="white" stroke="none" points="-4,4 -4,-400 727.53,-400 727.53,4 -4,4"/>
<!-- Apply -->
<g id="node1" class="node">
<title>Apply</title>
<g id="a_node1"><a xlink:href="https://eshelyaron.com/man/lean4-bdd/Bdd/Apply.html" xlink:title="Apply">
<ellipse fill="none" stroke="green" cx="33.95" cy="-162" rx="33.95" ry="18"/>
<text text-anchor="middle" x="33.95" y="-156.95" font-family="Times,serif" font-size="14.00">Apply</text>
</a>
</g>
</g>
<!-- BDD -->
<g id="node3" class="node">
<title>BDD</title>
<g id="a_node3"><a xlink:href="https://eshelyaron.com/man/lean4-bdd/Bdd/BDD.html" xlink:title="BDD">
<ellipse fill="none" stroke="green" cx="378.95" cy="-90" rx="30.37" ry="18"/>
<text text-anchor="middle" x="378.95" y="-84.95" font-family="Times,serif" font-size="14.00">BDD</text>
</a>
</g>
</g>
<!-- Apply&#45;&gt;BDD -->
<g id="edge5" class="edge">
<title>Apply&#45;&gt;BDD</title>
<path fill="none" stroke="black" d="M59.58,-149.89C65.23,-147.71 71.23,-145.61 76.95,-144 168.25,-118.23 278.8,-102.65 337.54,-95.57"/>
<polygon fill="black" stroke="black" points="337.9,-99.05 347.42,-94.4 337.08,-92.1 337.9,-99.05"/>
</g>
<!-- Basic -->
<g id="node2" class="node">
<title>Basic</title>
<g id="a_node2"><a xlink:href="https://eshelyaron.com/man/lean4-bdd/Bdd/Basic.html" xlink:title="Basic">
<ellipse fill="none" stroke="green" cx="343.95" cy="-306" rx="31.39" ry="18"/>
<text text-anchor="middle" x="343.95" y="-300.95" font-family="Times,serif" font-size="14.00">Basic</text>
</a>
</g>
</g>
<!-- Basic&#45;&gt;Apply -->
<g id="edge1" class="edge">
<title>Basic&#45;&gt;Apply</title>
<path fill="none" stroke="black" d="M312.98,-302.33C269.54,-297.51 189.09,-284.64 128.95,-252 99.15,-235.83 71.65,-208.04 53.99,-187.81"/>
<polygon fill="black" stroke="black" points="56.72,-185.62 47.58,-180.27 51.39,-190.16 56.72,-185.62"/>
</g>
<!-- Choice -->
<g id="node4" class="node">
<title>Choice</title>
<g id="a_node4"><a xlink:href="https://eshelyaron.com/man/lean4-bdd/Bdd/Choice.html" xlink:title="Choice">
<ellipse fill="none" stroke="green" cx="122.95" cy="-162" rx="37.02" ry="18"/>
<text text-anchor="middle" x="122.95" y="-156.95" font-family="Times,serif" font-size="14.00">Choice</text>
</a>
</g>
</g>
<!-- Basic&#45;&gt;Choice -->
<g id="edge13" class="edge">
<title>Basic&#45;&gt;Choice</title>
<path fill="none" stroke="black" d="M312.4,-304.78C270.8,-302.78 197.77,-293.14 153.95,-252 137.25,-236.33 129.55,-211.19 125.99,-191.62"/>
<polygon fill="black" stroke="black" points="129.46,-191.15 124.5,-181.79 122.54,-192.2 129.46,-191.15"/>
</g>
<!-- Collect -->
<g id="node5" class="node">
<title>Collect</title>
<g id="a_node5"><a xlink:href="https://eshelyaron.com/man/lean4-bdd/Bdd/Collect.html" xlink:title="Collect">
<ellipse fill="none" stroke="green" cx="200.95" cy="-234" rx="37.53" ry="18"/>
<text text-anchor="middle" x="200.95" y="-228.95" font-family="Times,serif" font-size="14.00">Collect</text>
</a>
</g>
</g>
<!-- Basic&#45;&gt;Collect -->
<g id="edge14" class="edge">
<title>Basic&#45;&gt;Collect</title>
<path fill="none" stroke="black" d="M320.66,-293.6C297.98,-282.5 263.2,-265.47 236.96,-252.63"/>
<polygon fill="black" stroke="black" points="238.53,-249.5 228.01,-248.25 235.45,-255.79 238.53,-249.5"/>
</g>
<!-- Count -->
<g id="node6" class="node">
<title>Count</title>
<g id="a_node6"><a xlink:href="https://eshelyaron.com/man/lean4-bdd/Bdd/Count.html" xlink:title="Count">
<ellipse fill="none" stroke="green" cx="378.95" cy="-162" rx="33.44" ry="18"/>
<text text-anchor="middle" x="378.95" y="-156.95" font-family="Times,serif" font-size="14.00">Count</text>
</a>
</g>
</g>
<!-- Basic&#45;&gt;Count -->
<g id="edge15" class="edge">
<title>Basic&#45;&gt;Count</title>
<path fill="none" stroke="black" d="M347.17,-287.84C350.66,-269.84 356.57,-240.79 362.95,-216 365.07,-207.78 367.63,-198.91 370.07,-190.84"/>
<polygon fill="black" stroke="black" points="373.34,-192.12 372.95,-181.53 366.65,-190.05 373.34,-192.12"/>
</g>
<!-- Evaluate -->
<g id="node8" class="node">
<title>Evaluate</title>
<g id="a_node8"><a xlink:href="https://eshelyaron.com/man/lean4-bdd/Bdd/Evaluate.html" xlink:title="Evaluate">
<ellipse fill="none" stroke="green" cx="414.95" cy="-234" rx="43.16" ry="18"/>
<text text-anchor="middle" x="414.95" y="-228.95" font-family="Times,serif" font-size="14.00">Evaluate</text>
</a>
</g>
</g>
<!-- Basic&#45;&gt;Evaluate -->
<g id="edge16" class="edge">
<title>Basic&#45;&gt;Evaluate</title>
<path fill="none" stroke="black" d="M359.36,-289.81C368.5,-280.8 380.28,-269.18 390.65,-258.95"/>
<polygon fill="black" stroke="black" points="392.84,-261.71 397.51,-252.2 387.93,-256.72 392.84,-261.71"/>
</g>
<!-- Lift -->
<g id="node9" class="node">
<title>Lift</title>
<g id="a_node9"><a xlink:href="https://eshelyaron.com/man/lean4-bdd/Bdd/Lift.html" xlink:title="Lift">
<ellipse fill="none" stroke="green" cx="502.95" cy="-234" rx="27" ry="18"/>
<text text-anchor="middle" x="502.95" y="-228.95" font-family="Times,serif" font-size="14.00">Lift</text>
</a>
</g>
</g>
<!-- Basic&#45;&gt;Lift -->
<g id="edge17" class="edge">
<title>Basic&#45;&gt;Lift</title>
<path fill="none" stroke="black" d="M368.56,-294.69C393.47,-284.18 433.04,-267.31 466.95,-252 468.26,-251.41 469.6,-250.8 470.94,-250.18"/>
<polygon fill="black" stroke="black" points="472.34,-253.4 479.93,-246.01 469.39,-247.05 472.34,-253.4"/>
</g>
<!-- Relabel -->
<g id="node12" class="node">
<title>Relabel</title>
<g id="a_node12"><a xlink:href="https://eshelyaron.com/man/lean4-bdd/Bdd/Relabel.html" xlink:title="Relabel">
<ellipse fill="none" stroke="green" cx="586.95" cy="-234" rx="39.07" ry="18"/>
<text text-anchor="middle" x="586.95" y="-228.95" font-family="Times,serif" font-size="14.00">Relabel</text>
</a>
</g>
</g>
<!-- Basic&#45;&gt;Relabel -->
<g id="edge20" class="edge">
<title>Basic&#45;&gt;Relabel</title>
<path fill="none" stroke="black" d="M372.56,-297.94C410.74,-288.36 480.35,-270.31 538.95,-252 541.35,-251.25 543.81,-250.46 546.28,-249.64"/>
<polygon fill="black" stroke="black" points="547.33,-252.98 555.68,-246.45 545.08,-246.35 547.33,-252.98"/>
</g>
<!-- Restrict -->
<g id="node13" class="node">
<title>Restrict</title>
<g id="a_node13"><a xlink:href="https://eshelyaron.com/man/lean4-bdd/Bdd/Restrict.html" xlink:title="Restrict">
<ellipse fill="none" stroke="green" cx="683.95" cy="-234" rx="39.58" ry="18"/>
<text text-anchor="middle" x="683.95" y="-228.95" font-family="Times,serif" font-size="14.00">Restrict</text>
</a>
</g>
</g>
<!-- Basic&#45;&gt;Restrict -->
<g id="edge21" class="edge">
<title>Basic&#45;&gt;Restrict</title>
<path fill="none" stroke="black" d="M374.45,-301.02C427.81,-293.71 541.33,-276.61 634.95,-252 637.69,-251.28 640.5,-250.48 643.32,-249.63"/>
<polygon fill="black" stroke="black" points="644.22,-253.02 652.67,-246.63 642.08,-246.35 644.22,-253.02"/>
</g>
<!-- Trim -->
<g id="node17" class="node">
<title>Trim</title>
<g id="a_node17"><a xlink:href="https://eshelyaron.com/man/lean4-bdd/Bdd/Trim.html" xlink:title="Trim">
<ellipse fill="none" stroke="green" cx="285.95" cy="-234" rx="29.86" ry="18"/>
<text text-anchor="middle" x="285.95" y="-228.95" font-family="Times,serif" font-size="14.00">Trim</text>
</a>
</g>
</g>
<!-- Basic&#45;&gt;Trim -->
<g id="edge25" class="edge">
<title>Basic&#45;&gt;Trim</title>
<path fill="none" stroke="black" d="M331.08,-289.46C323.72,-280.58 314.33,-269.25 306.02,-259.22"/>
<polygon fill="black" stroke="black" points="308.83,-257.12 299.75,-251.66 303.44,-261.59 308.83,-257.12"/>
</g>
<!-- Sat -->
<g id="node14" class="node">
<title>Sat</title>
<g id="a_node14"><a xlink:href="https://eshelyaron.com/man/lean4-bdd/Bdd/Sat.html" xlink:title="Sat">
<ellipse fill="none" stroke="green" cx="378.95" cy="-18" rx="27" ry="18"/>
<text text-anchor="middle" x="378.95" y="-12.95" font-family="Times,serif" font-size="14.00">Sat</text>
</a>
</g>
</g>
<!-- BDD&#45;&gt;Sat -->
<g id="edge22" class="edge">
<title>BDD&#45;&gt;Sat</title>
<path fill="none" stroke="black" d="M378.95,-71.7C378.95,-64.41 378.95,-55.73 378.95,-47.54"/>
<polygon fill="black" stroke="black" points="382.45,-47.62 378.95,-37.62 375.45,-47.62 382.45,-47.62"/>
</g>
<!-- Choice&#45;&gt;BDD -->
<g id="edge7" class="edge">
<title>Choice&#45;&gt;BDD</title>
<path fill="none" stroke="black" d="M151.01,-150.09C156.89,-147.95 163.09,-145.82 168.95,-144 227.71,-125.78 297.14,-109.2 339.6,-99.61"/>
<polygon fill="black" stroke="black" points="340.36,-103.02 349.35,-97.42 338.83,-96.19 340.36,-103.02"/>
</g>
<!-- Reduce -->
<g id="node11" class="node">
<title>Reduce</title>
<g id="a_node11"><a xlink:href="https://eshelyaron.com/man/lean4-bdd/Bdd/Reduce.html" xlink:title="Reduce">
<ellipse fill="none" stroke="red" cx="288.95" cy="-162" rx="38.56" ry="18"/>
<text text-anchor="middle" x="288.95" y="-156.95" font-family="Times,serif" font-size="14.00">Reduce</text>
</a>
</g>
</g>
<!-- Collect&#45;&gt;Reduce -->
<g id="edge18" class="edge">
<title>Collect&#45;&gt;Reduce</title>
<path fill="none" stroke="black" d="M219.61,-218.15C231.66,-208.57 247.56,-195.92 261.1,-185.16"/>
<polygon fill="black" stroke="black" points="263.18,-187.97 268.83,-179.01 258.82,-182.49 263.18,-187.97"/>
</g>
<!-- Size -->
<g id="node16" class="node">
<title>Size</title>
<g id="a_node16"><a xlink:href="https://eshelyaron.com/man/lean4-bdd/Bdd/Size.html" xlink:title="Size">
<ellipse fill="none" stroke="green" cx="204.95" cy="-162" rx="27" ry="18"/>
<text text-anchor="middle" x="204.95" y="-156.95" font-family="Times,serif" font-size="14.00">Size</text>
</a>
</g>
</g>
<!-- Collect&#45;&gt;Size -->
<g id="edge24" class="edge">
<title>Collect&#45;&gt;Size</title>
<path fill="none" stroke="black" d="M201.94,-215.7C202.36,-208.41 202.85,-199.73 203.32,-191.54"/>
<polygon fill="black" stroke="black" points="206.81,-191.8 203.89,-181.62 199.82,-191.4 206.81,-191.8"/>
</g>
<!-- Count&#45;&gt;BDD -->
<g id="edge12" class="edge">
<title>Count&#45;&gt;BDD</title>
<path fill="none" stroke="black" d="M378.95,-143.7C378.95,-136.41 378.95,-127.73 378.95,-119.54"/>
<polygon fill="black" stroke="black" points="382.45,-119.62 378.95,-109.62 375.45,-119.62 382.45,-119.62"/>
</g>
<!-- DecisionTree -->
<g id="node7" class="node">
<title>DecisionTree</title>
<g id="a_node7"><a xlink:href="https://eshelyaron.com/man/lean4-bdd/Bdd/DecisionTree.html" xlink:title="DecisionTree">
<ellipse fill="none" stroke="green" cx="289.95" cy="-378" rx="60.56" ry="18"/>
<text text-anchor="middle" x="289.95" y="-372.95" font-family="Times,serif" font-size="14.00">DecisionTree</text>
</a>
</g>
</g>
<!-- DecisionTree&#45;&gt;Basic -->
<g id="edge3" class="edge">
<title>DecisionTree&#45;&gt;Basic</title>
<path fill="none" stroke="black" d="M303.02,-360.05C309.58,-351.56 317.64,-341.11 324.87,-331.73"/>
<polygon fill="black" stroke="black" points="327.48,-334.08 330.81,-324.03 321.93,-329.81 327.48,-334.08"/>
</g>
<!-- Evaluate&#45;&gt;BDD -->
<g id="edge9" class="edge">
<title>Evaluate&#45;&gt;BDD</title>
<path fill="none" stroke="black" d="M420.04,-215.74C424.55,-197.4 429.25,-167.84 420.95,-144 417.11,-132.97 409.92,-122.52 402.55,-113.85"/>
<polygon fill="black" stroke="black" points="405.3,-111.66 395.97,-106.63 400.12,-116.38 405.3,-111.66"/>
</g>
<!-- Sim -->
<g id="node15" class="node">
<title>Sim</title>
<g id="a_node15"><a xlink:href="https://eshelyaron.com/man/lean4-bdd/Bdd/Sim.html" xlink:title="Sim">
<ellipse fill="none" stroke="green" cx="499.95" cy="-162" rx="27" ry="18"/>
<text text-anchor="middle" x="499.95" y="-156.95" font-family="Times,serif" font-size="14.00">Sim</text>
</a>
</g>
</g>
<!-- Lift&#45;&gt;Sim -->
<g id="edge23" class="edge">
<title>Lift&#45;&gt;Sim</title>
<path fill="none" stroke="black" d="M502.21,-215.7C501.9,-208.41 501.52,-199.73 501.17,-191.54"/>
<polygon fill="black" stroke="black" points="504.67,-191.46 500.75,-181.62 497.68,-191.76 504.67,-191.46"/>
</g>
<!-- Nary -->
<g id="node10" class="node">
<title>Nary</title>
<g id="a_node10"><a xlink:href="https://eshelyaron.com/man/lean4-bdd/Bdd/Nary.html" xlink:title="Nary">
<ellipse fill="none" stroke="green" cx="397.95" cy="-378" rx="29.34" ry="18"/>
<text text-anchor="middle" x="397.95" y="-372.95" font-family="Times,serif" font-size="14.00">Nary</text>
</a>
</g>
</g>
<!-- Nary&#45;&gt;Basic -->
<g id="edge2" class="edge">
<title>Nary&#45;&gt;Basic</title>
<path fill="none" stroke="black" d="M385.97,-361.46C379.28,-352.8 370.79,-341.79 363.19,-331.95"/>
<polygon fill="black" stroke="black" points="366.08,-329.96 357.2,-324.18 360.54,-334.23 366.08,-329.96"/>
</g>
<!-- Reduce&#45;&gt;BDD -->
<g id="edge4" class="edge">
<title>Reduce&#45;&gt;BDD</title>
<path fill="none" stroke="black" d="M308.04,-146.15C320.9,-136.15 338.06,-122.8 352.27,-111.75"/>
<polygon fill="black" stroke="black" points="354.18,-114.7 359.92,-105.8 349.88,-109.18 354.18,-114.7"/>
</g>
<!-- Relabel&#45;&gt;BDD -->
<g id="edge6" class="edge">
<title>Relabel&#45;&gt;BDD</title>
<path fill="none" stroke="black" d="M581.34,-215.77C573.98,-195.78 559.2,-163.11 535.95,-144 502.41,-116.43 453.84,-102.94 419.63,-96.52"/>
<polygon fill="black" stroke="black" points="420.56,-93.13 410.11,-94.86 419.36,-100.03 420.56,-93.13"/>
</g>
<!-- Restrict&#45;&gt;BDD -->
<g id="edge8" class="edge">
<title>Restrict&#45;&gt;BDD</title>
<path fill="none" stroke="black" d="M666.98,-217.26C644.84,-197.53 604.19,-163.86 563.95,-144 516.85,-120.75 457.81,-106.06 419.28,-98.2"/>
<polygon fill="black" stroke="black" points="419.99,-94.77 409.5,-96.26 418.63,-101.63 419.99,-94.77"/>
</g>
<!-- Sim&#45;&gt;BDD -->
<g id="edge10" class="edge">
<title>Sim&#45;&gt;BDD</title>
<path fill="none" stroke="black" d="M479.97,-149.44C460.96,-138.45 432.08,-121.74 410.06,-109"/>
<polygon fill="black" stroke="black" points="411.9,-106.02 401.49,-104.04 408.4,-112.08 411.9,-106.02"/>
</g>
<!-- Size&#45;&gt;BDD -->
<g id="edge11" class="edge">
<title>Size&#45;&gt;BDD</title>
<path fill="none" stroke="black" d="M226.15,-150.67C230.98,-148.4 236.12,-146.06 240.95,-144 275.12,-129.4 314.78,-114.36 342.79,-104.05"/>
<polygon fill="black" stroke="black" points="343.68,-107.45 351.87,-100.73 341.27,-100.88 343.68,-107.45"/>
</g>
<!-- Trim&#45;&gt;Reduce -->
<g id="edge19" class="edge">
<title>Trim&#45;&gt;Reduce</title>
<path fill="none" stroke="black" d="M286.69,-215.7C287,-208.41 287.38,-199.73 287.73,-191.54"/>
<polygon fill="black" stroke="black" points="291.22,-191.76 288.15,-181.62 284.23,-191.46 291.22,-191.76"/>
</g>
</g>
</svg>
